<?xml version="1.0" encoding="UTF-8"?>
<!DOCTYPE svg PUBLIC "-//W3C//DTD SVG 1.1//EN" "http://www.w3.org/Graphics/SVG/1.1/DTD/svg11.dtd">
<!-- Creator: CorelDRAW 2020 (64-Bit) -->
<svg xmlns="http://www.w3.org/2000/svg" xml:space="preserve" width="35mm" height="35mm" version="1.1" style="shape-rendering:geometricPrecision; text-rendering:geometricPrecision; image-rendering:optimizeQuality; fill-rule:evenodd; clip-rule:evenodd"
viewBox="0 0 1064.69 1064.69"
 xmlns:xlink="http://www.w3.org/1999/xlink"
 xmlns:xodm="http://www.corel.com/coreldraw/odm/2003">
 <defs>
  <style type="text/css">
   <![CDATA[
    .fil0 {fill:#313378;fill-rule:nonzero}
   ]]>
  </style>
 </defs>
 <g id="Layer_x0020_1">
  <metadata id="CorelCorpID_0Corel-Layer"/>
  <path id="f2PcKHKxlD" class="fil0" d="M304.84 49.75c-152.14,70.22 -262.81,206.59 -295.31,364.72 -3.37,16.06 -7.01,37.56 -7.85,47.63 -0.29,1.09 -0.85,7.34 -1.69,18.51l69.76 0 69.76 0c32.22,-57.7 49.88,-89.82 53.52,-96.35 29.14,-53.07 54.36,-97.18 55.75,-98.53 3.37,-2.18 58.56,-15.25 59.68,-13.88 0.56,0.27 25.77,99.08 56.03,219.38 30.54,120.31 55.76,219.39 56.6,219.92 0.56,0.55 1.12,0.28 1.12,-0.81 0,-4.35 135.05,-597.99 136.72,-600.7 1.97,-3.27 63.6,-30.22 65.57,-28.59 0.56,0.82 35.3,120.04 77.05,265.11 42.02,145.07 76.76,264.56 77.32,265.1 0.56,0.55 1.41,0.55 1.96,0 0.29,-0.54 23.26,-25.85 50.71,-56.34 44.55,-49.53 51.28,-56.34 65.85,-63.69 1.12,-0.55 6.45,-3.26 15.97,-8.17l75.65 0 75.65 0c-0.85,-8.44 -1.41,-13.06 -1.69,-13.88 -8.12,-73.21 -31.66,-146.44 -63.32,-199.24 -5.04,-7.89 -9.52,-16.06 -10.64,-17.96 -8.41,-17.96 -57.15,-77.84 -83.21,-102.61 -76.49,-72.39 -175.12,-122.48 -275.42,-139.9 -47.07,-8.44 -98.34,-11.43 -132.24,-8.17 -80.97,7.62 -132.8,20.69 -193.32,48.45z"/>
  <path id="bOS08yx0N" class="fil0" d="M491.43 713.6c-21.01,91.45 -37.82,167.38 -37.82,169.02 0,2.45 -66.41,31.57 -67.81,29.67 -0.56,-0.55 -16.24,-63.42 -87.13,-344.58 -21.58,-85.73 -39.51,-156.23 -39.78,-156.51 -0.29,-0.27 -18.5,31.85 -40.35,71.59 -2.53,4.63 -15.98,28.58 -39.79,71.85l-20.17 13.61 -20.17 13.61 -69.2 0 -69.2 0c0,6.53 0,9.79 0,10.62 0,27.75 15.41,93.62 31.66,136.36 15.41,39.2 51.83,105.34 67.81,122.21 1.96,1.9 10.64,12.25 18.76,22.59 45.4,55.53 109,104.8 179.88,138.27 146.53,69.95 317.16,70.5 465.66,0.81 25.21,-11.7 67.23,-36.2 70.32,-41.1 1.11,-1.36 1.96,-1.9 1.96,-0.81 0,2.71 20.73,-13.07 49.87,-38.11 43.99,-38.11 84.06,-86.01 112.35,-135.28 30.82,-53.63 54.92,-124.94 61.92,-182.09 0.85,-7.08 2.24,-17.15 2.8,-22.05 0.28,-0.81 0.84,-3.54 1.69,-8.98l-80.69 0 -80.42 0.27c-35.3,39.47 -54.92,61.24 -58.83,65.6 -32.5,35.92 -61.36,67.5 -64.44,70.5 -4.2,3.81 -10.09,5.17 -29.43,6.53 -13.16,1.08 -24.65,1.36 -25.77,0.27 -0.84,-0.54 -30.26,-101.53 -65.56,-223.74 -35.02,-121.93 -64.72,-224.27 -66.12,-227 -1.12,-3.54 -11.49,37.84 -33.06,132.83 -17.09,75.93 -48.19,212.58 -68.93,304.03z"/>
 </g>
</svg>
