<?xml version="1.0" encoding="UTF-8"?>
<!DOCTYPE svg PUBLIC "-//W3C//DTD SVG 1.1//EN" "http://www.w3.org/Graphics/SVG/1.1/DTD/svg11.dtd">
<!-- Creator: CorelDRAW 2020 (64-Bit) -->
<svg xmlns="http://www.w3.org/2000/svg" xml:space="preserve" width="117" height="35" version="1.1" style="shape-rendering:geometricPrecision; text-rendering:geometricPrecision; image-rendering:optimizeQuality; fill-rule:evenodd; clip-rule:evenodd"
viewBox="0 0 12006.39 3575.34"
 xmlns:xlink="http://www.w3.org/1999/xlink"
 xmlns:xodm="http://www.corel.com/coreldraw/odm/2003">
 <defs>
  <style type="text/css">
   <![CDATA[
    .fil1 {fill:#FFFFFF;fill-rule:nonzero}
    .fil0 {fill:#FFFFFF;fill-rule:nonzero}
   ]]>
  </style>
 </defs>
 <g id="Layer_x0020_1">
  <metadata id="CorelCorpID_0Corel-Layer"/>
  <path id="f2PcKHKxlD" class="fil0" d="M1023.68 167.05c-510.9,235.81 -882.54,693.75 -991.68,1224.79 -11.31,53.93 -23.54,126.13 -26.35,159.95 -0.96,3.66 -2.85,24.66 -5.66,62.15l234.28 0 234.28 0c108.21,-193.77 167.49,-301.63 179.72,-323.56 97.86,-178.23 182.54,-326.33 187.23,-330.88 11.31,-7.32 196.65,-51.2 200.42,-46.6 1.88,0.9 86.55,332.71 188.15,736.69 102.55,404.01 187.26,736.72 190.06,738.51 1.89,1.84 3.77,0.94 3.77,-2.73 0,-14.61 453.51,-2008.11 459.12,-2017.23 6.62,-10.99 213.58,-101.47 220.19,-96 1.89,2.76 118.53,403.11 258.74,890.28 141.1,487.17 257.78,888.41 259.66,890.24 1.89,1.84 4.73,1.84 6.58,0 0.96,-1.83 78.1,-86.81 170.3,-189.21 149.6,-166.33 172.19,-189.21 221.12,-213.87 3.77,-1.84 21.66,-10.95 53.62,-27.44l254.05 0 254.04 0c-2.85,-28.33 -4.73,-43.86 -5.66,-46.6 -27.27,-245.86 -106.32,-491.75 -212.65,-669.08 -16.93,-26.5 -31.96,-53.93 -35.73,-60.32 -28.23,-60.31 -191.92,-261.41 -279.44,-344.59 -256.85,-243.1 -588.07,-411.3 -924.9,-469.79 -158.06,-28.33 -330.25,-38.38 -444.08,-27.43 -271.9,25.6 -445.97,69.47 -649.2,162.71z"/>
  <path id="bOS08yx0N" class="fil0" d="M1650.29 2396.36c-70.55,307.11 -127.02,562.09 -127.02,567.58 0,8.22 -223,106.02 -227.7,99.64 -1.88,-1.84 -54.55,-212.98 -292.6,-1157.15 -72.47,-287.91 -132.68,-524.64 -133.6,-525.57 -0.96,-0.9 -62.13,106.95 -135.48,240.41 -8.5,15.54 -53.66,95.96 -133.64,241.29l-67.75 45.7 -67.74 45.71 -232.4 0 -232.39 0c0,21.93 0,32.88 0,35.65 0,93.2 51.74,314.39 106.33,457.9 51.74,131.62 174.07,353.75 227.7,410.41 6.58,6.38 35.73,41.14 63.01,75.86 152.45,186.48 366.02,351.92 604.07,464.33 492.05,234.91 1065.07,236.74 1563.74,2.73 84.67,-39.28 225.78,-121.57 236.16,-138.01 3.74,-4.57 6.58,-6.39 6.58,-2.73 0,9.11 69.63,-43.87 167.46,-127.97 147.71,-127.99 282.28,-288.84 377.3,-454.27 103.51,-180.08 184.42,-419.56 207.92,-611.5 2.84,-23.77 7.54,-57.59 9.42,-74.03 0.93,-2.73 2.81,-11.89 5.66,-30.17l-270.97 0 -270.05 0.9c-118.56,132.55 -184.42,205.65 -197.57,220.3 -109.14,120.63 -206.04,226.66 -216.39,236.74 -14.12,12.79 -33.88,17.35 -98.82,21.94 -44.2,3.63 -82.78,4.56 -86.55,0.9 -2.81,-1.83 -101.6,-340.93 -220.16,-751.34 -117.6,-409.47 -217.34,-753.13 -222.04,-762.28 -3.77,-11.89 -38.58,127.06 -111.02,446.05 -57.39,254.98 -161.84,713.86 -231.47,1020.97z"/>
  <path class="fil1" d="M4015.08 1784.79c-14.12,0 -26.26,-5.08 -36.46,-15.22 -10.18,-10.15 -15.28,-22.26 -15.28,-36.32 0,-6.24 0.78,-11.71 2.35,-16.4l524.4 -1494.45c4.7,-17.18 15.68,-34.36 32.92,-51.54 17.24,-17.18 41.55,-25.77 72.9,-25.77l510.28 0c31.36,0 55.66,8.59 72.91,25.77 17.24,17.17 28.21,34.35 32.92,51.54l524.39 1494.45c1.57,4.69 2.35,10.15 2.35,16.4 0,14.06 -5.1,26.16 -15.28,36.32 -10.18,10.14 -22.34,15.22 -36.44,15.22l-435.05 0c-29.78,0 -51.34,-6.64 -64.67,-19.91 -13.32,-13.27 -22.33,-26.16 -27.04,-38.65l-56.44 -154.6 -505.58 0 -56.44 154.6c-4.7,12.49 -13.32,25.38 -25.87,38.65 -12.53,13.27 -34.49,19.91 -65.85,19.91l-435.03 0zm703.11 -669.93l265.73 0 -134.03 -435.69 -131.69 435.69z"/>
  <path id="1" class="fil1" d="M5931.6 1784.79c-17.25,0 -32.15,-6.24 -44.68,-18.73 -12.54,-12.49 -18.81,-27.34 -18.81,-44.51l0 -1513.2c0,-17.18 6.26,-32.01 18.81,-44.51 12.53,-12.49 27.43,-18.74 44.68,-18.74l371.54 0c31.36,0 54.88,8.59 70.55,25.77 15.68,17.17 25.88,29.67 30.57,37.48l340.99 562.18 340.97 -562.18c4.69,-7.81 14.88,-20.31 30.56,-37.48 15.67,-17.18 39.19,-25.77 70.55,-25.77l371.55 0c17.24,0 32.14,6.25 44.68,18.74 12.53,12.49 18.81,27.33 18.81,44.51l0 1513.2c0,17.17 -6.27,32.01 -18.81,44.51 -12.54,12.49 -27.44,18.73 -44.68,18.73l-425.63 0c-17.25,0 -32.15,-6.24 -44.69,-18.73 -12.53,-12.49 -18.81,-27.34 -18.81,-44.51l0 -641.82 -155.2 252.98c-7.85,12.49 -18.43,25.37 -31.75,38.65 -13.33,13.27 -31.75,19.91 -55.26,19.91l-164.61 0c-23.52,0 -41.93,-6.64 -55.26,-19.91 -13.32,-13.28 -23.9,-26.16 -31.74,-38.65l-155.21 -252.98 0 641.82c0,17.17 -6.26,32.01 -18.81,44.51 -12.54,12.49 -27.44,18.73 -44.68,18.73l-425.63 0z"/>
  <path id="2" class="fil1" d="M7944.53 1784.79c-17.25,0 -32.15,-6.24 -44.68,-18.73 -12.54,-12.49 -18.82,-27.34 -18.82,-44.51l0 -1513.2c0,-17.18 6.27,-32.01 18.82,-44.51 12.53,-12.49 27.43,-18.74 44.68,-18.74l479.71 0c17.25,0 32.15,6.25 44.68,18.74 12.54,12.49 18.82,27.33 18.82,44.51l0 1513.2c0,17.17 -6.27,32.01 -18.82,44.51 -12.53,12.49 -27.43,18.73 -44.68,18.73l-479.71 0z"/>
  <path id="3" class="fil1" d="M9491.85 1808.21c-150.49,0 -283.75,-21.86 -399.75,-65.58 -116.01,-43.73 -208.13,-112.44 -276.32,-206.13 -68.2,-93.7 -105.42,-214.72 -111.69,-363.08 -1.57,-64.02 -2.35,-132.74 -2.35,-206.12 0,-73.4 0.78,-143.67 2.35,-210.82 6.27,-145.23 44.29,-264.69 114.05,-358.39 69.76,-93.69 163.04,-163.18 279.84,-208.47 116.79,-45.28 248.09,-67.93 393.88,-67.93 100.33,0 197.14,11.33 290.43,33.97 93.27,22.65 177.53,58.18 252.79,106.59 75.26,48.41 135.21,110.48 179.89,186.21 44.69,75.75 67.8,166.7 69.37,272.9 0,14.05 -5.1,26.15 -15.28,36.3 -10.19,10.14 -22.34,15.22 -36.45,15.22l-479.73 0c-25.08,0 -43.5,-5.08 -55.25,-15.22 -11.76,-10.15 -22.34,-27.72 -31.75,-52.71 -17.24,-49.96 -40.76,-83.54 -70.55,-100.72 -29.79,-17.17 -65.05,-25.76 -105.82,-25.76 -51.74,0 -92.88,13.67 -123.45,40.99 -30.57,27.33 -47.43,76.91 -50.56,148.74 -4.71,128.05 -4.71,259.22 0,393.52 3.13,71.83 19.98,121.42 50.56,148.74 30.57,27.33 71.71,40.99 123.45,40.99 40.77,0 76.43,-9.38 107,-28.11 30.57,-18.74 53.68,-51.54 69.36,-98.38 7.84,-26.55 18.03,-44.51 30.57,-53.88 12.54,-9.37 31.35,-14.06 56.43,-14.06l479.73 0c14.11,0 26.25,5.08 36.45,15.23 10.18,10.14 15.28,22.25 15.28,36.3 -1.57,106.19 -24.68,197.15 -69.37,272.89 -44.68,75.74 -104.63,137.81 -179.89,186.22 -75.26,48.41 -159.52,83.94 -252.79,106.58 -93.29,22.65 -190.1,33.97 -290.43,33.97z"/>
  <path id="4" class="fil1" d="M11213.2 1808.21c-153.64,0 -288.07,-23.42 -403.3,-70.27 -115.23,-46.85 -206.14,-117.52 -272.78,-211.99 -66.62,-94.48 -103.07,-211.21 -109.34,-350.19 -1.57,-64.03 -2.35,-131.96 -2.35,-203.79 0,-71.83 0.78,-141.33 2.35,-208.47 6.27,-137.43 42.33,-253.76 108.17,-349.01 65.85,-95.27 156.77,-167.88 272.79,-217.85 116,-49.97 250.83,-74.96 404.46,-74.96 153.63,0 288.46,24.99 404.47,74.96 116,49.97 207.33,122.58 273.95,217.85 66.63,95.26 102.29,211.59 106.99,349.01 3.14,67.14 4.71,136.64 4.71,208.47 0,71.83 -1.57,139.77 -4.71,203.79 -6.26,138.98 -42.72,255.71 -109.35,350.19 -66.62,94.47 -157.55,165.14 -272.78,211.99 -115.22,46.85 -249.66,70.27 -403.29,70.27zm0 -456.76c51.73,0 93.28,-15.23 124.63,-45.68 31.36,-30.45 47.82,-78.47 49.39,-144.06 3.13,-67.16 4.7,-133.52 4.7,-199.11 0,-65.59 -1.57,-130.4 -4.7,-194.42 -1.57,-43.73 -9.81,-79.65 -24.69,-107.75 -14.89,-28.11 -34.89,-48.81 -59.96,-62.08 -25.09,-13.27 -54.88,-19.91 -89.36,-19.91 -32.92,0 -62.31,6.64 -88.19,19.91 -25.87,13.27 -46.23,33.97 -61.14,62.08 -14.89,28.1 -23.13,64.02 -24.69,107.75 -1.56,64.02 -2.35,128.82 -2.35,194.42 0,65.58 0.79,131.95 2.35,199.11 3.14,65.58 19.99,113.6 50.57,144.06 30.56,30.45 71.71,45.68 123.45,45.68z"/>
  <path class="fil1" d="M4017.93 3422.49c-13.49,0 -25.14,-4.8 -34.96,-14.41 -9.8,-9.61 -14.71,-21.02 -14.71,-34.23l0 -1164c0,-13.22 4.91,-24.63 14.71,-34.23 9.82,-9.61 21.46,-14.42 34.96,-14.42l529.72 0c115.26,0 218.26,18.92 309,56.77 90.74,37.84 163.38,93.39 217.95,166.67 54.57,73.27 83.68,163.96 87.36,272.07 2.45,51.66 3.69,97 3.69,136.04 0,39.04 -1.24,83.19 -3.69,132.44 -4.9,112.92 -33.11,206.31 -84.6,280.18 -51.51,73.88 -121.7,128.54 -210.6,163.98 -88.9,35.44 -192.21,53.15 -309.93,53.15l-538.91 0zm410.16 -351.36l119.56 0c26.98,0 51.19,-5.1 72.65,-15.31 21.45,-10.21 38.92,-26.13 52.41,-47.75 13.48,-21.63 20.85,-49.26 22.08,-82.89 2.45,-34.83 3.98,-66.07 4.6,-93.69 0.6,-27.63 0.6,-55.56 0,-83.79 -0.61,-28.23 -2.15,-58.56 -4.6,-91 -2.46,-50.45 -18.7,-87.08 -48.75,-109.92 -30.04,-22.82 -65.9,-34.23 -107.6,-34.23l-110.36 0 0 558.57z"/>
  <path id="1" class="fil1" d="M5447.43 3422.49c-13.49,0 -25.14,-4.8 -34.95,-14.41 -9.81,-9.61 -14.72,-21.02 -14.72,-34.23l0 -1164c0,-13.22 4.91,-24.63 14.72,-34.23 9.81,-9.61 21.45,-14.42 34.95,-14.42l375.22 0c13.48,0 25.14,4.81 34.95,14.42 9.81,9.6 14.71,21.01 14.71,34.23l0 1164c0,13.21 -4.9,24.62 -14.71,34.23 -9.81,9.61 -21.46,14.41 -34.95,14.41l-375.22 0z"/>
  <path id="2" class="fil1" d="M6729.8 3440.51c-123.85,0 -231.14,-18.02 -321.87,-54.06 -90.74,-36.04 -161.86,-90.69 -213.37,-163.96 -51.5,-73.27 -79.7,-165.77 -84.6,-277.49 -1.23,-49.25 -1.84,-102.7 -1.84,-160.36 0,-57.67 0.61,-112.32 1.84,-163.98 4.9,-106.9 33.41,-195.5 85.52,-265.77 52.12,-70.27 124.17,-123.12 216.12,-158.56 91.96,-35.44 198.03,-53.15 318.19,-53.15 96.87,0 183.94,10.5 261.18,31.52 77.26,21.02 143.46,50.16 198.65,87.39 55.18,37.23 97.48,80.18 126.91,128.83 29.42,48.65 44.75,100 45.98,154.06 0,10.81 -3.99,20.12 -11.96,27.93 -7.97,7.8 -17.47,11.72 -28.5,11.72l-406.5 0c-13.48,0 -24.21,-1.81 -32.18,-5.41 -7.98,-3.6 -15.03,-8.41 -21.16,-14.41 -4.9,-6.01 -11.95,-14.71 -21.15,-26.12 -9.19,-11.41 -22.38,-21.63 -39.55,-30.64 -17.16,-9.01 -41.08,-13.51 -71.73,-13.51 -45.37,0 -79.7,11.11 -103,33.33 -23.3,22.23 -36.17,56.16 -38.62,101.81 -3.69,99.7 -3.69,201.81 0,306.31 2.45,54.06 16.56,93.1 42.3,117.12 25.75,24.03 61.31,36.04 106.69,36.04 30.65,0 57.62,-4.2 80.93,-12.61 23.29,-8.42 41.69,-22.23 55.17,-41.44 13.49,-19.23 20.24,-43.85 20.24,-73.88l0 -1.81 -86.45 0c-13.48,0 -25.13,-4.8 -34.95,-14.41 -9.81,-9.61 -14.71,-21.02 -14.71,-34.23l0 -200c0,-13.22 4.9,-24.63 14.71,-34.24 9.82,-9.6 21.46,-14.41 34.95,-14.41l505.81 0c13.49,0 25.14,4.81 34.95,14.41 9.81,9.61 14.72,21.02 14.72,34.24l0 234.24c0,108.11 -26.98,198.81 -80.93,272.08 -53.97,73.27 -128.45,128.83 -223.49,166.67 -95.02,37.84 -204.46,56.76 -328.31,56.76z"/>
  <path id="3" class="fil1" d="M7646.13 3422.49c-13.48,0 -25.14,-4.8 -34.95,-14.41 -9.81,-9.61 -14.72,-21.02 -14.72,-34.23l0 -1164c0,-13.22 4.91,-24.63 14.72,-34.23 9.81,-9.61 21.46,-14.42 34.95,-14.42l375.22 0c13.48,0 25.14,4.81 34.95,14.42 9.82,9.6 14.71,21.01 14.71,34.23l0 1164c0,13.21 -4.89,24.62 -14.71,34.23 -9.81,9.61 -21.46,14.41 -34.95,14.41l-375.22 0z"/>
  <path id="4" class="fil1" d="M8676.52 3422.49c-13.49,0 -25.14,-4.8 -34.95,-14.41 -9.81,-9.61 -14.72,-21.02 -14.72,-34.23l0 -825.25 -305.31 0c-13.48,0 -25.15,-4.81 -34.95,-14.41 -9.82,-9.61 -14.71,-21.02 -14.71,-34.24l0 -290.09c0,-13.22 4.89,-24.63 14.71,-34.23 9.8,-9.61 21.46,-14.42 34.95,-14.42l1077.82 0c13.49,0 25.14,4.81 34.95,14.42 9.82,9.6 14.72,21.01 14.72,34.23l0 290.09c0,13.22 -4.9,24.63 -14.72,34.24 -9.81,9.6 -21.45,14.41 -34.95,14.41l-305.32 0 0 825.25c0,13.21 -4.89,24.62 -14.71,34.23 -9.82,9.61 -21.46,14.41 -34.95,14.41l-367.86 0z"/>
  <path id="5" class="fil1" d="M9462.27 3422.49c-11.04,0 -20.54,-3.9 -28.51,-11.72 -7.97,-7.8 -11.95,-17.11 -11.95,-27.93 0,-4.8 0.61,-9 1.83,-12.61l410.17 -1149.58c3.68,-13.21 12.26,-26.43 25.74,-39.64 13.49,-13.22 32.5,-19.83 57.02,-19.83l399.13 0c24.52,0 43.53,6.61 57.02,19.83 13.48,13.21 22.06,26.43 25.74,39.64l410.17 1149.58c1.22,3.61 1.83,7.8 1.83,12.61 0,10.82 -3.98,20.12 -11.95,27.93 -7.97,7.81 -17.47,11.72 -28.51,11.72l-340.26 0c-23.31,0 -40.18,-5.11 -50.59,-15.31 -10.43,-10.22 -17.48,-20.12 -21.16,-29.74l-44.14 -118.92 -395.45 0 -44.15 118.92c-3.67,9.61 -10.41,19.52 -20.23,29.74 -9.81,10.21 -26.98,15.31 -51.51,15.31l-340.26 0zm549.95 -515.33l207.84 0 -104.84 -335.14 -103 335.14z"/>
  <path id="6" class="fil1" d="M11029.72 3422.49c-13.49,0 -25.14,-4.8 -34.95,-14.41 -9.81,-9.61 -14.72,-21.02 -14.72,-34.23l0 -1164c0,-13.22 4.91,-24.63 14.72,-34.23 9.81,-9.61 21.45,-14.42 34.95,-14.42l367.86 0c13.48,0 25.14,4.81 34.95,14.42 9.82,9.6 14.72,21.01 14.72,34.23l0 843.26 509.48 0c13.49,0 25.14,4.81 34.96,14.42 9.8,9.6 14.71,21.01 14.71,34.23l0 272.08c0,13.21 -4.91,24.62 -14.71,34.23 -9.82,9.61 -21.46,14.41 -34.96,14.41l-927 0z"/>
 </g>
</svg>
