<?xml version="1.0" encoding="UTF-8"?>
<svg xmlns="http://www.w3.org/2000/svg" xmlns:xlink="http://www.w3.org/1999/xlink" width="512" height="512" viewBox="0 0 60 59" version="1.1"><!-- Generator: Sketch 50.2 (55047) - http://www.bohemiancoding.com/sketch --><title>054 - Oil Drill </title><desc>Created with Sketch.</desc><defs/><g id="Page-1" stroke="none" stroke-width="1" fill="none" fill-rule="evenodd"><g id="054---Oil-Drill-" fill-rule="nonzero"><path d="M48,55 C47.4477153,55 47,54.5522847 47,54 L47,15.35 C47,14.7977153 47.4477153,14.35 48,14.35 C48.5522847,14.35 49,14.7977153 49,15.35 L49,54 C49,54.5522847 48.5522847,55 48,55 Z" id="Shape" fill="#5E5F62"/><path d="M14,16.82 L14,25 C14,25.5522847 13.5522847,26 13,26 L9.414,26 C9.14880519,25.9999434 8.89449273,25.8945494 8.707,25.707 L4.293,21.293 C4.10545063,21.1055073 4.00005664,20.8511948 4,20.586 L4,5.414 C4.00005664,5.14880519 4.10545063,4.89449273 4.293,4.707 L8.707,0.293 C8.89449273,0.105450625 9.14880519,5.66374055e-05 9.414,0 L13,0 C13.5522847,0 14,0.44771525 14,1 L14,16.82 Z" id="Shape" fill="#F0C419"/><path d="M30,16.132 L55.043,15.042 C55.5784234,15.0189557 56.0004957,14.5779189 56,14.042 L56,11.957 C56.0004957,11.4210811 55.5784234,10.9800443 55.043,10.957 L11.043,9.044 C10.7704146,9.03226786 10.5048713,9.13242232 10.3079289,9.32124532 C10.1109865,9.51006833 9.99974764,9.77116237 10,10.044 L10,15.955 C9.99973558,16.228019 10.1111107,16.4892753 10.3082745,16.6781294 C10.5054382,16.8669836 10.7712453,16.967013 11.044,16.955 L21.85,16.48 L30,16.132 Z" id="Shape" fill="#3B97D3"/><path d="M20,53 L21.943,14.94 C21.9747798,14.4112761 22.4133227,13.9990458 22.943,14 L25.061,14 C25.5906773,13.9990458 26.0292202,14.4112761 26.061,14.94 L28,53 L20,53 Z" id="Shape" fill="#2980BA"/><path d="M19,51 L29,51 C30.6568542,51 32,52.3431458 32,54 L32,58 L16,58 L16,54 C16,52.3431458 17.3431458,51 19,51 Z" id="Shape" fill="#3B97D3"/><path d="M46,59 L1,59 C0.44771525,59 6.76353751e-17,58.5522847 0,58 C-6.76353751e-17,57.4477153 0.44771525,57 1,57 L46,57 C46.5522847,57 47,57.4477153 47,58 C47,58.5522847 46.5522847,59 46,59 Z" id="Shape" fill="#CB8252"/><path d="M59,59 L50,59 C49.4477153,59 49,58.5522847 49,58 C49,57.4477153 49.4477153,57 50,57 L59,57 C59.5522847,57 60,57.4477153 60,58 C60,58.5522847 59.5522847,59 59,59 Z" id="Shape" fill="#CB8252"/></g></g></svg>
