<?xml version="1.0" encoding="UTF-8"?>
<svg xmlns="http://www.w3.org/2000/svg" xmlns:xlink="http://www.w3.org/1999/xlink" width="512" height="512" viewBox="0 0 60 59" version="1.1"><!-- Generator: Sketch 50.2 (55047) - http://www.bohemiancoding.com/sketch --><title>051 - Silo</title><desc>Created with Sketch.</desc><defs/><g id="Page-1" stroke="none" stroke-width="1" fill="none" fill-rule="evenodd"><g id="051---Silo" fill-rule="nonzero"><path d="M40,41 C39.4477153,41 39,41.4477153 39,42 L39,55 C39,55.5522847 39.4477153,56 40,56 C40.5522847,56 41,55.5522847 41,55 L41,42 C41,41.4477153 40.5522847,41 40,41 Z" id="Shape" fill="#285680"/><path d="M58,41 C57.4477153,41 57,41.4477153 57,42 L57,55 C57,55.5522847 57.4477153,56 58,56 C58.5522847,56 59,55.5522847 59,55 L59,42 C59,41.4477153 58.5522847,41 58,41 Z" id="Shape" fill="#285680"/><path d="M53,41 C52.4477153,41 52,41.4477153 52,42 L52,55 C52,55.5522847 52.4477153,56 53,56 C53.5522847,56 54,55.5522847 54,55 L54,42 C54,41.4477153 53.5522847,41 53,41 Z" id="Shape" fill="#285680"/><path d="M46,41 C45.4477153,41 45,41.4477153 45,42 L45,55 C45,55.5522847 45.4477153,56 46,56 C46.5522847,56 47,55.5522847 47,55 L47,42 C47,41.4477153 46.5522847,41 46,41 Z" id="Shape" fill="#285680"/><path d="M4,56 C3.85195632,55.9992128 3.70599838,55.9650306 3.573,55.9 C3.07763738,55.662646 2.86645295,55.0701688 3.1,54.573 L8.29,43.573 C8.43773522,43.2421333 8.75289655,43.0170705 9.11379987,42.9847088 C9.47470319,42.952347 9.82487709,43.11775 10.0291191,43.4170554 C10.233361,43.7163607 10.2597128,44.1027355 10.098,44.427 L4.908,55.427 C4.74222509,55.7780661 4.38823529,56.001454 4,56 Z" id="Shape" fill="#7F8C8D"/><path d="M32,56 C31.6146561,55.99836 31.2645398,55.7754527 31.1,55.427 L25.91,44.427 C25.7482872,44.1027355 25.774639,43.7163607 25.9788809,43.4170554 C26.1831229,43.11775 26.5332968,42.952347 26.8942001,42.9847088 C27.2551034,43.0170705 27.5702648,43.2421333 27.718,43.573 L32.908,54.573 C33.1436898,55.072272 32.9301647,55.6680831 32.431,55.904 C32.296461,55.9682377 32.1490841,56.0010641 32,56 Z" id="Shape" fill="#7F8C8D"/><circle id="Oval" fill="#3F5C6C" cx="18" cy="32" r="16"/><path d="M30.257,27.666 C30.1236667,27.2973333 29.9766667,26.9356667 29.816,26.581 C29.5845927,26.0795255 28.9904746,25.8605927 28.489,26.092 C27.9875255,26.3234073 27.7685927,26.9175255 28,27.419 C28.1373333,27.7156667 28.2613333,28.0206667 28.372,28.334 C28.5609931,28.8480664 29.1283535,29.114449 29.6446027,28.9315023 C30.1608518,28.7485557 30.433875,28.1843608 30.257,27.666 Z" id="Shape" fill="#9FC9D3"/><path d="M18,19 C17.4477153,19 17,19.4477153 17,20 C17,20.5522847 17.4477153,21 18,21 C20.7072034,20.9994294 23.3190085,21.9999149 25.333,23.809 C25.5993415,24.0472961 25.9725807,24.1253994 26.3121219,24.0138889 C26.6516632,23.9023785 26.9059222,23.6181955 26.9791219,23.2683889 C27.0523217,22.9185824 26.9333415,22.5562961 26.667,22.318 C24.2860616,20.1809791 21.199332,18.999282 18,19 Z" id="Shape" fill="#9FC9D3"/><path d="M18,56 C17.4477153,56 17,55.5522847 17,55 L17,42 C17,41.4477153 17.4477153,41 18,41 C18.5522847,41 19,41.4477153 19,42 L19,55 C19,55.5522847 18.5522847,56 18,56 Z" id="Shape" fill="#7F8C8D"/><path d="M35,33 L1,33 C0.44771525,33 6.76353751e-17,32.5522847 0,32 C-6.76353751e-17,31.4477153 0.44771525,31 1,31 L35,31 C35.5522847,31 36,31.4477153 36,32 C36,32.5522847 35.5522847,33 35,33 Z" id="Shape" fill="#35495E"/><path d="M18,17 C17.4477153,17 17,16.5522847 17,16 L17,12 C17,10.3431458 18.3431458,9 20,9 L39,9 C39.5522847,9 40,9.44771525 40,10 C40,10.5522847 39.5522847,11 39,11 L20,11 C19.4477153,11 19,11.4477153 19,12 L19,16 C19,16.5522847 18.5522847,17 18,17 Z" id="Shape" fill="#3B97D3"/><path d="M59,55 L1,55 L1,58 C1,58.5522847 1.44771525,59 2,59 L58,59 C58.5522847,59 59,58.5522847 59,58 L59,55 Z" id="Shape" fill="#7F5B53"/><path d="M59,35 L59,43 L57,44.4 L54,46.5 L52,47.9 L49.57,49.6 C49.2278481,49.8398524 48.7721519,49.8398524 48.43,49.6 L47,48.6 L45,47.2 L41,44.4 L39,43 L39,35 L59,35 Z" id="Shape" fill="#3B97D3"/><path d="M59,2 L58,2 L58,1 C58,0.44771525 57.5522847,3.38176876e-17 57,0 C56.4477153,-3.38176876e-17 56,0.44771525 56,1 L56,2 L50,2 L50,1 C50,0.44771525 49.5522847,3.38176876e-17 49,0 C48.4477153,-3.38176876e-17 48,0.44771525 48,1 L48,2 L42,2 L42,1 C42,0.44771525 41.5522847,3.38176876e-17 41,0 C40.4477153,-3.38176876e-17 40,0.44771525 40,1 L40,2 L39,2 C38.4477153,2 38,2.44771525 38,3 C38,3.55228475 38.4477153,4 39,4 L40,4 L40,7 C40,7.55228475 40.4477153,8 41,8 C41.5522847,8 42,7.55228475 42,7 L42,4 L48,4 L48,7 C48,7.55228475 48.4477153,8 49,8 C49.5522847,8 50,7.55228475 50,7 L50,4 L56,4 L56,7 C56,7.55228475 56.4477153,8 57,8 C57.5522847,8 58,7.55228475 58,7 L58,4 L59,4 C59.5522847,4 60,3.55228475 60,3 C60,2.44771525 59.5522847,2 59,2 Z" id="Shape" fill="#285680"/><path d="M59,8 L59,37 L39,37 L39,8 C39,7.44771525 39.4477153,7 40,7 L58,7 C58.5522847,7 59,7.44771525 59,8 Z" id="Shape" fill="#2980BA"/><path d="M47,7 L47,32 C47,32.5522847 46.5522847,33 46,33 C45.4477153,33 45,32.5522847 45,32 L45,7 L47,7 Z" id="Shape" fill="#3B97D3"/><path d="M54,7 L54,32 C54,32.5522847 53.5522847,33 53,33 C52.4477153,33 52,32.5522847 52,32 L52,7 L54,7 Z" id="Shape" fill="#3B97D3"/></g></g></svg>
