<?xml version="1.0" encoding="UTF-8"?>
<svg xmlns="http://www.w3.org/2000/svg" xmlns:xlink="http://www.w3.org/1999/xlink" width="512" height="512" viewBox="0 0 50 58" version="1.1"><!-- Generator: Sketch 50.2 (55047) - http://www.bohemiancoding.com/sketch --><title>037 - Oil Truck </title><desc>Created with Sketch.</desc><defs/><g id="Page-1" stroke="none" stroke-width="1" fill="none" fill-rule="evenodd"><g id="037---Oil-Truck-" fill-rule="nonzero"><path d="M3,39.88 C-0.773263367,32.88751 -0.999264289,24.5180702 2.39113758,17.332139 C5.78153945,10.1462078 12.384879,4.99892639 20.181,3.465 C20.6523781,3.37826554 20.9959309,2.96927409 21,2.49 L21,1 C21,0.44771525 21.4477153,0 22,0 L28,0 C28.5522847,0 29,0.44771525 29,1 L29,2.49 C29.0040691,2.96927409 29.3476219,3.37826554 29.819,3.465 C37.615121,4.99892639 44.2184605,10.1462078 47.6088624,17.332139 C50.9992643,24.5180702 50.7732634,32.88751 47,39.88 L3,39.88 Z" id="Shape" fill="#F0C419"/><path d="M3,48 L11,48 L11,56 C11,57.1045695 10.1045695,58 9,58 L5,58 C3.8954305,58 3,57.1045695 3,56 L3,48 Z" id="Shape" fill="#3F5C6C"/><path d="M41,48 L45,48 C46.1045695,48 47,48.8954305 47,50 L47,58 L39,58 L39,50 C39,48.8954305 39.8954305,48 41,48 Z" id="Shape" fill="#3F5C6C" transform="translate(43.000000, 53.000000) rotate(-180.000000) translate(-43.000000, -53.000000) "/><rect id="Rectangle-path" fill="#2C2F38" x="3" y="41" width="44" height="9"/><path d="M44,33 L6,33 C4.34314575,33 3,34.3431458 3,36 L3,44 L47,44 L47,36 C47,34.3431458 45.6568542,33 44,33 Z" id="Shape" fill="#C03A2B"/><rect id="Rectangle-path" fill="#E64C3C" x="10" y="27" width="30" height="17"/><rect id="Rectangle-path" fill="#67B9CC" x="12" y="14" width="26" height="12.78"/><polygon id="Shape" fill="#B0D3F0" points="24.78 24.93 31 15 24 15 17.56 25.29 17.55 25.29"/><path d="M40,26.79 L40.0000012,28 L9.99999884,28 L10,26.79 C9.99891002,25.7697536 10.7659442,24.9122266 11.78,24.8 C14.54,24.51 20.03,24 25,24 C29.97,24 35.46,24.51 38.22,24.8 C39.2340558,24.9122266 40.00109,25.7697536 40,26.79 Z" id="Shape" fill="#C03A2B"/><path d="M34,33 L34,44 L16,44 L16,33 C16,32.4477153 16.4477153,32 17,32 L33,32 C33.5522847,32 34,32.4477153 34,33 Z" id="Shape" fill="#5E5F62"/><path d="M23,35 L20,35 C19.4477153,35 19,35.4477153 19,36 C19,36.5522847 19.4477153,37 20,37 L23,37 C23.5522847,37 24,36.5522847 24,36 C24,35.4477153 23.5522847,35 23,35 Z" id="Shape" fill="#A5A5A4"/><path d="M23,39 L20,39 C19.4477153,39 19,39.4477153 19,40 C19,40.5522847 19.4477153,41 20,41 L23,41 C23.5522847,41 24,40.5522847 24,40 C24,39.4477153 23.5522847,39 23,39 Z" id="Shape" fill="#A5A5A4"/><path d="M27,37 L30,37 C30.5522847,37 31,36.5522847 31,36 C31,35.4477153 30.5522847,35 30,35 L27,35 C26.4477153,35 26,35.4477153 26,36 C26,36.5522847 26.4477153,37 27,37 Z" id="Shape" fill="#A5A5A4"/><path d="M30,39 L27,39 C26.4477153,39 26,39.4477153 26,40 C26,40.5522847 26.4477153,41 27,41 L30,41 C30.5522847,41 31,40.5522847 31,40 C31,39.4477153 30.5522847,39 30,39 Z" id="Shape" fill="#A5A5A4"/><path d="M40,14 L40,15.5 C40,15.7761424 39.7761424,16 39.5,16 L10.5,16 C10.2238576,16 10,15.7761424 10,15.5 L10,14 C10.0032948,12.8967981 10.8967981,12.0032948 12,12 L38,12 C39.1032019,12.0032948 39.9967052,12.8967981 40,14 Z" id="Shape" fill="#E64C3C"/></g></g></svg>
