<?xml version="1.0" encoding="UTF-8"?>
<svg xmlns="http://www.w3.org/2000/svg" xmlns:xlink="http://www.w3.org/1999/xlink" width="512" height="512" viewBox="0 0 42 59" version="1.1"><!-- Generator: Sketch 50.2 (55047) - http://www.bohemiancoding.com/sketch --><title>027 - Oil </title><desc>Created with Sketch.</desc><defs/><g id="Page-1" stroke="none" stroke-width="1" fill="none" fill-rule="evenodd"><g id="027---Oil-"><rect id="Rectangle-path" fill="#BDC3C7" fill-rule="nonzero" x="27" y="1" width="8" height="8"/><path d="M37,2 L25,2 C24.4477153,2 24,1.55228475 24,1 C24,0.44771525 24.4477153,1.01453063e-16 25,0 L37,0 C37.5522847,3.38176876e-17 38,0.44771525 38,1 C38,1.55228475 37.5522847,2 37,2 Z" id="Shape" fill="#F0C419" fill-rule="nonzero"/><polygon id="Shape" fill="#2980BA" fill-rule="nonzero" points="39 56 39 35.091 39 30.909 39 10 3 10 3 30.909 3 35.091 3 56"/><polygon id="Shape" fill="#4482C3" fill-rule="nonzero" points="36 56 36 35.091 36 30.909 36 10 6 10 6 30.909 6 35.091 6 56"/><rect id="Rectangle-path" fill="#E64C3C" fill-rule="nonzero" x="0" y="55" width="42" height="4" rx="2"/><path d="M11.13,31 C10.5934307,32.2799722 10.2269751,33.6247633 10.04,35 L2,35 C0.896798134,34.9967052 0.00329480111,34.1032019 0,33 C0.00816722449,31.8988312 0.898831217,31.0081672 2,31 L11.13,31 Z" id="Shape" fill="#E64C3C" fill-rule="nonzero"/><path d="M42,33 C41.9918328,34.1011688 41.1011688,34.9918328 40,35 L31.96,35 C31.7730249,33.6247633 31.4065693,32.2799722 30.87,31 L40,31 C41.1032019,31.0032948 41.9967052,31.8967981 42,33 Z" id="Shape" fill="#E64C3C" fill-rule="nonzero"/><rect id="Rectangle-path" fill="#E64C3C" fill-rule="nonzero" x="0" y="7" width="42" height="4" rx="2"/><path d="M21.819,19.165 C21.6338416,18.8949316 21.3274455,18.7335051 21,18.7335051 C20.6725545,18.7335051 20.3661584,18.8949316 20.181,19.165 C17.961,22.376 12,31.405 12,35.735 C12,40.3 16.033,44 21,44 C25.967,44 30,40.3 30,35.735 C30,31.405 24.039,22.376 21.819,19.165 Z" id="Shape" fill="#2C3E50"/></g></g></svg>
