<?xml version="1.0" encoding="UTF-8"?>
<svg xmlns="http://www.w3.org/2000/svg" xmlns:xlink="http://www.w3.org/1999/xlink" width="512" height="512" viewBox="0 0 60 59" version="1.1"><!-- Generator: Sketch 50.2 (55047) - http://www.bohemiancoding.com/sketch --><title>020 - Conveyor </title><desc>Created with Sketch.</desc><defs/><g id="Page-1" stroke="none" stroke-width="1" fill="none" fill-rule="evenodd"><g id="020---Conveyor-" fill-rule="nonzero"><path d="M41,2 L41,15 L19,15 L19,2 C19,0.9 19.619,0 20.375,0 L39.625,0 C40.381,0 41,0.9 41,2 Z" id="Shape" fill="#4482C3"/><path d="M5,55 C4.44771525,55 4,54.5522847 4,54 L4,43 C4,42.4477153 4.44771525,42 5,42 C5.55228475,42 6,42.4477153 6,43 L6,54 C6,54.5522847 5.55228475,55 5,55 Z" id="Shape" fill="#2C3E50"/><path d="M5,51 C4.5956041,50.9999137 4.23106595,50.7562725 4.07632202,50.3826546 C3.92157809,50.0090366 4.00709208,49.5789943 4.293,49.293 L11.293,42.293 C11.6853789,41.9140278 12.3090848,41.9194476 12.6948186,42.3051814 C13.0805524,42.6909152 13.0859722,43.3146211 12.707,43.707 L5.707,50.707 C5.51950727,50.8945494 5.26519481,50.9999434 5,51 Z" id="Shape" fill="#2C3E50"/><path d="M55,55 C54.4477153,55 54,54.5522847 54,54 L54,43 C54,42.4477153 54.4477153,42 55,42 C55.5522847,42 56,42.4477153 56,43 L56,54 C56,54.5522847 55.5522847,55 55,55 Z" id="Shape" fill="#2C3E50"/><path d="M55,51 C54.7348052,50.9999434 54.4804927,50.8945494 54.293,50.707 L47.293,43.707 C46.9140278,43.3146211 46.9194476,42.6909152 47.3051814,42.3051814 C47.6909152,41.9194476 48.3146211,41.9140278 48.707,42.293 L55.707,49.293 C55.9929079,49.5789943 56.0784219,50.0090366 55.923678,50.3826546 C55.7689341,50.7562725 55.4043959,50.9999137 55,51 Z" id="Shape" fill="#2C3E50"/><path d="M45,33 L58,33 C58.5522847,33 59,33.4477153 59,34 L59,42 C59,42.5522847 58.5522847,43 58,43 L2,43 C1.44771525,43 1,42.5522847 1,42 L1,34 C1,33.4477153 1.44771525,33 2,33 L45,33 Z" id="Shape" fill="#95A5A5"/><path d="M11,40 C10.7348052,39.9999434 10.4804927,39.8945494 10.293,39.707 L8.293,37.707 C7.91402779,37.3146211 7.91944763,36.6909152 8.30518142,36.3051814 C8.69091522,35.9194476 9.31462111,35.9140278 9.707,36.293 L11.707,38.293 C11.9929079,38.5789943 12.0784219,39.0090366 11.923678,39.3826546 C11.7689341,39.7562725 11.4043959,39.9999137 11,40 Z" id="Shape" fill="#BDC3C7"/><path d="M9,40 C8.5956041,39.9999137 8.23106595,39.7562725 8.07632202,39.3826546 C7.92157809,39.0090366 8.00709208,38.5789943 8.293,38.293 L10.293,36.293 C10.6853789,35.9140278 11.3090848,35.9194476 11.6948186,36.3051814 C12.0805524,36.6909152 12.0859722,37.3146211 11.707,37.707 L9.707,39.707 C9.51950727,39.8945494 9.26519481,39.9999434 9,40 Z" id="Shape" fill="#BDC3C7"/><path d="M5,39 L1,39 C0.44771525,39 6.76353751e-17,38.5522847 0,38 C-6.76353751e-17,37.4477153 0.44771525,37 1,37 L5,37 C5.55228475,37 6,37.4477153 6,38 C6,38.5522847 5.55228475,39 5,39 Z" id="Shape" fill="#BDC3C7"/><path d="M49,40 C48.5956041,39.9999137 48.2310659,39.7562725 48.076322,39.3826546 C47.9215781,39.0090366 48.0070921,38.5789943 48.293,38.293 L50.293,36.293 C50.6853789,35.9140278 51.3090848,35.9194476 51.6948186,36.3051814 C52.0805524,36.6909152 52.0859722,37.3146211 51.707,37.707 L49.707,39.707 C49.5195073,39.8945494 49.2651948,39.9999434 49,40 Z" id="Shape" fill="#BDC3C7"/><path d="M51,40 C50.7348052,39.9999434 50.4804927,39.8945494 50.293,39.707 L48.293,37.707 C47.9140278,37.3146211 47.9194476,36.6909152 48.3051814,36.3051814 C48.6909152,35.9194476 49.3146211,35.9140278 49.707,36.293 L51.707,38.293 C51.9929079,38.5789943 52.0784219,39.0090366 51.923678,39.3826546 C51.7689341,39.7562725 51.4043959,39.9999137 51,40 Z" id="Shape" fill="#BDC3C7"/><path d="M59,39 L55,39 C54.4477153,39 54,38.5522847 54,38 C54,37.4477153 54.4477153,37 55,37 L59,37 C59.5522847,37 60,37.4477153 60,38 C60,38.5522847 59.5522847,39 59,39 Z" id="Shape" fill="#BDC3C7"/><path d="M58,44 L2,44 C0.8954305,44 1.3527075e-16,43.1045695 0,42 L0,34 C-1.3527075e-16,32.8954305 0.8954305,32 2,32 L58,32 C59.1045695,32 60,32.8954305 60,34 L60,42 C60,43.1045695 59.1045695,44 58,44 Z M2,34 L2,42 L58,42 L58,34 L2,34 Z" id="Shape" fill="#547580"/><path d="M45,14 L45,58 L15,58 L15,14 C15,13.45 15.34,13 15.75,13 L44.25,13 C44.66,13 45,13.45 45,14 Z" id="Shape" fill="#7F8C8D"/><path d="M23,51 C23,51.5522847 22.5522847,52 22,52 L15,52 L15,50 L22,50 C22.5522847,50 23,50.4477153 23,51 Z" id="Shape" fill="#BDC3C7"/><path d="M23,20 C23,20.5522847 22.5522847,21 22,21 L15,21 L15,19 L22,19 C22.5522847,19 23,19.4477153 23,20 Z" id="Shape" fill="#BDC3C7"/><path d="M26,21 L39,21 C39.5522847,21 40,20.5522847 40,20 C40,19.4477153 39.5522847,19 39,19 L26,19 C25.4477153,19 25,19.4477153 25,20 C25,20.5522847 25.4477153,21 26,21 Z" id="Shape" fill="#BDC3C7"/><path d="M39,50 L26,50 C25.4477153,50 25,50.4477153 25,51 C25,51.5522847 25.4477153,52 26,52 L39,52 C39.5522847,52 40,51.5522847 40,51 C40,50.4477153 39.5522847,50 39,50 Z" id="Shape" fill="#BDC3C7"/><rect id="Rectangle-path" fill="#2FA8CC" x="20" y="27" width="20" height="15" rx="1"/><path d="M24,33 C23.5956041,32.9999137 23.2310659,32.7562725 23.076322,32.3826546 C22.9215781,32.0090366 23.0070921,31.5789943 23.293,31.293 L24.293,30.293 C24.6853789,29.9140278 25.3090848,29.9194476 25.6948186,30.3051814 C26.0805524,30.6909152 26.0859722,31.3146211 25.707,31.707 L24.707,32.707 C24.5195073,32.8945494 24.2651948,32.9999434 24,33 Z" id="Shape" fill="#B0D3F0"/><path d="M24,39 C23.5956041,38.9999137 23.2310659,38.7562725 23.076322,38.3826546 C22.9215781,38.0090366 23.0070921,37.5789943 23.293,37.293 L30.293,30.293 C30.6853789,29.9140278 31.3090848,29.9194476 31.6948186,30.3051814 C32.0805524,30.6909152 32.0859722,31.3146211 31.707,31.707 L24.707,38.707 C24.5195073,38.8945494 24.2651948,38.9999434 24,39 Z" id="Shape" fill="#B0D3F0"/><path d="M1,54 L9,54 L9,56 C9,57.1045695 8.1045695,58 7,58 L3,58 C1.8954305,58 1,57.1045695 1,56 L1,54 Z" id="Shape" fill="#95A5A5" transform="translate(5.000000, 56.000000) rotate(-180.000000) translate(-5.000000, -56.000000) "/><path d="M53,54 L57,54 C58.1045695,54 59,54.8954305 59,56 L59,58 L51,58 L51,56 C51,54.8954305 51.8954305,54 53,54 Z" id="Shape" fill="#95A5A5"/><path d="M58.938,59 L1,59 C0.44771525,59 6.76353751e-17,58.5522847 0,58 C-6.76353751e-17,57.4477153 0.44771525,57 1,57 L58.938,57 C59.4902847,57 59.938,57.4477153 59.938,58 C59.938,58.5522847 59.4902847,59 58.938,59 Z" id="Shape" fill="#285680"/></g></g></svg>
