<?xml version="1.0" encoding="UTF-8"?>
<svg xmlns="http://www.w3.org/2000/svg" xmlns:xlink="http://www.w3.org/1999/xlink" width="512" height="512" viewBox="0 0 58 59" version="1.1"><!-- Generator: Sketch 50.2 (55047) - http://www.bohemiancoding.com/sketch --><title>010 - Nuclear Plant </title><desc>Created with Sketch.</desc><defs/><g id="Page-1" stroke="none" stroke-width="1" fill="none" fill-rule="evenodd"><g id="010---Nuclear-Plant-" fill-rule="nonzero"><rect id="Rectangle-path" fill="#556080" x="21" y="1" width="25" height="14"/><polyline id="Shape" fill="#7F8C8D" points="21 14 13 56 56 56 46 14"/><polygon id="Shape" fill="#F29C1F" points="2 36 2 45 2 47 2 56 28 56 28 36"/><path d="M28,34 C28,34 27,24 15,24 C3,24 2,34 2,34" id="Shape" fill="#E64C3C"/><path d="M9,46 C9,46.5522847 8.55228475,47 8,47 L2,47 L2,45 L8,45 C8.55228475,45 9,45.4477153 9,46 Z" id="Shape" fill="#F0C419"/><path d="M21,47 L12,47 C11.4477153,47 11,46.5522847 11,46 C11,45.4477153 11.4477153,45 12,45 L21,45 C21.5522847,45 22,45.4477153 22,46 C22,46.5522847 21.5522847,47 21,47 Z" id="Shape" fill="#F0C419"/><path d="M45.243,32.386 C44.7706913,32.3852669 44.3632951,32.0541793 44.266,31.592 L41.866,20.206 C41.7883579,19.8548111 41.9052929,19.4889795 42.1722374,19.2479348 C42.4391819,19.00689 42.8150093,18.9277684 43.1564806,19.0407257 C43.4979519,19.1536829 43.7524583,19.4413162 43.823,19.794 L46.223,31.18 C46.2777558,31.4396579 46.2270589,31.7104323 46.0820737,31.9326928 C45.9370886,32.1549533 45.7097058,32.3104719 45.45,32.365 C45.3818765,32.3789085 45.3125288,32.3859438 45.243,32.386 Z" id="Shape" fill="#95A5A5"/><path d="M45.989,36.519 C45.7291391,36.4838215 45.4929774,36.3494351 45.33,36.144 C45.2462621,36.0397051 45.1859009,35.9186418 45.153,35.789 C45.0391799,35.3982118 45.1803624,34.9778546 45.507,34.735 C45.7699588,34.5300871 46.1184568,34.4714402 46.434,34.579 C46.4947723,34.5976478 46.5524109,34.6252874 46.605,34.661 C46.6654824,34.6901861 46.7216733,34.7275345 46.772,34.772 L46.906,34.91 C46.9426961,34.9625439 46.9760937,35.017316 47.006,35.074 C47.0363755,35.1341063 47.0585724,35.1980065 47.072,35.264 C47.0940039,35.3237204 47.1068164,35.3864346 47.11,35.45 C47.1194233,35.5163337 47.1194233,35.5836663 47.11,35.65 C47.0967697,35.7805421 47.0532853,35.9062017 46.983,36.017 C46.9176312,36.1304095 46.8334277,36.2318595 46.734,36.317 C46.5208206,36.4775043 46.2540592,36.5498342 45.989,36.519 Z" id="Shape" fill="#95A5A5"/><path d="M36,14 L30,14 C29.4477153,14 29,14.4477153 29,15 L29,28 C29,28.5522847 29.4477153,29 30,29 C30.5522847,29 31,28.5522847 31,28 L31,26 L35,26 L35,29 L34,29 C33.4477153,29 33,29.4477153 33,30 C33,30.5522847 33.4477153,31 34,31 L35,31 L35,34 L34,34 C33.4477153,34 33,34.4477153 33,35 C33,35.5522847 33.4477153,36 34,36 L35,36 L35,39 L34,39 C33.4477153,39 33,39.4477153 33,40 C33,40.5522847 33.4477153,41 34,41 L35,41 L35,44 L32,44 C31.4477153,44 31,44.4477153 31,45 C31,45.5522847 31.4477153,46 32,46 L35,46 L35,49 L32,49 C31.4477153,49 31,49.4477153 31,50 C31,50.5522847 31.4477153,51 32,51 L35,51 L35,55 L30,55 C29.4477153,55 29,55.4477153 29,56 C29,56.5522847 29.4477153,57 30,57 L36,57 C36.5522847,57 37,56.5522847 37,56 L37,15 C37,14.4477153 36.5522847,14 36,14 Z M35,16 L35,19 L31,19 L31,16 L35,16 Z M31,24 L31,21 L35,21 L35,24 L31,24 Z" id="Shape" fill="#BDC3C7"/><path d="M48,2 L19,2 C18.4477153,2 18,1.55228475 18,1 C18,0.44771525 18.4477153,1.01453063e-16 19,0 L48,0 C48.5522847,3.38176876e-17 49,0.44771525 49,1 C49,1.55228475 48.5522847,2 48,2 Z" id="Shape" fill="#802D40"/><path d="M5.51,55 L1,55 C0.44771525,55 0,55.4477153 0,56 L0,58 C0,58.5522847 0.44771525,59 1,59 L57,59 C57.5522847,59 58,58.5522847 58,58 L58,56 C58,55.4477153 57.5522847,55 57,55 L5.51,55 Z" id="Shape" fill="#4C8056"/><path d="M26,8 L22,8 C21.4477153,8 21,7.55228475 21,7 C21,6.44771525 21.4477153,6 22,6 L26,6 C26.5522847,6 27,6.44771525 27,7 C27,7.55228475 26.5522847,8 26,8 Z" id="Shape" fill="#8697CB"/><path d="M40,8 L30,8 C29.4477153,8 29,7.55228475 29,7 C29,6.44771525 29.4477153,6 30,6 L40,6 C40.5522847,6 41,6.44771525 41,7 C41,7.55228475 40.5522847,8 40,8 Z" id="Shape" fill="#8697CB"/><path d="M5,37 L2,37 C0.8954305,37 2.22044605e-16,36.1045695 0,35 C-1.11022302e-16,33.8954305 0.8954305,33 2,33 L28,33 C29.1045695,33 30,33.8954305 30,35 C30,36.1045695 29.1045695,37 28,37 L5,37 Z" id="Shape" fill="#E57E25"/></g></g></svg>
