<?xml version="1.0" encoding="UTF-8"?>
<svg xmlns="http://www.w3.org/2000/svg" xmlns:xlink="http://www.w3.org/1999/xlink" width="512" height="512" viewBox="0 0 58 58" version="1.1"><!-- Generator: Sketch 50.2 (55047) - http://www.bohemiancoding.com/sketch --><title>007 - Nuclear Factory </title><desc>Created with Sketch.</desc><defs/><g id="Page-1" stroke="none" stroke-width="1" fill="none" fill-rule="evenodd"><g id="007---Nuclear-Factory-" fill-rule="nonzero"><path d="M45.6,22.53 L40.316,0.764 C40.2070929,0.315564391 39.8054707,-0.000113954453 39.344,-1.11022302e-16 L18.666,-1.11022302e-16 C18.2045293,-0.000113954453 17.8029071,0.315564391 17.694,0.764 L12.02,24.13 L12.02,31 L46,31 L45.6,22.53 Z" id="Shape" fill="#E4C05C"/><polygon id="Shape" fill="#C03A2B" points="42.8 11 15.21 11 16.67 5 41.34 5"/><path d="M56,36 L56,29.561 C55.999806,29.2126441 55.8183416,28.8894934 55.521,28.708 L52,26.556 L39.521,18.93 C39.2124116,18.7416415 38.8261848,18.7345122 38.5108553,18.9113539 C38.1955257,19.0881955 38.0002012,19.4214676 38,19.783 L38,27.217 C37.9997988,27.5785324 37.8044743,27.9118045 37.4891447,28.0886461 C37.1738152,28.2654878 36.7875884,28.2583585 36.479,28.07 L21.521,18.93 C21.2124116,18.7416415 20.8261848,18.7345122 20.5108553,18.9113539 C20.1955257,19.0881955 20.0002012,19.4214676 20,19.783 L20,27.217 C19.9997988,27.5785324 19.8044743,27.9118045 19.4891447,28.0886461 C19.1738152,28.2654878 18.7875884,28.2583585 18.479,28.07 L3.521,18.93 C3.21241162,18.7416415 2.82618482,18.7345122 2.51085526,18.9113539 C2.19552569,19.0881955 2.00020122,19.4214676 2,19.783 L2,35 L56,36 Z" id="Shape" fill="#802D40"/><path d="M56,56 L56,34.561 C55.999806,34.2126441 55.8183416,33.8894934 55.521,33.708 L39.521,23.93 C39.2124116,23.7416415 38.8261848,23.7345122 38.5108553,23.9113539 C38.1955257,24.0881955 38.0002012,24.4214676 38,24.783 L38,32.217 C37.9997988,32.5785324 37.8044743,32.9118045 37.4891447,33.0886461 C37.1738152,33.2654878 36.7875884,33.2583585 36.479,33.07 L21.521,23.93 C21.2124116,23.7416415 20.8261848,23.7345122 20.5108553,23.9113539 C20.1955257,24.0881955 20.0002012,24.4214676 20,24.783 L20,32.217 C19.9997988,32.5785324 19.8044743,32.9118045 19.4891447,33.0886461 C19.1738152,33.2654878 18.7875884,33.2583585 18.479,33.07 L3.521,23.93 C3.21241162,23.7416415 2.82618482,23.7345122 2.51085526,23.9113539 C2.19552569,24.0881955 2.00020122,24.4214676 2,24.783 L2,56 L56,56 Z" id="Shape" fill="#95A5A5"/><path d="M15,40 L6,40 C5.44771525,40 5,39.5522847 5,39 C5,38.4477153 5.44771525,38 6,38 L15,38 C15.5522847,38 16,38.4477153 16,39 C16,39.5522847 15.5522847,40 15,40 Z" id="Shape" fill="#7F8C8D"/><path d="M52,40 L19,40 C18.4477153,40 18,39.5522847 18,39 C18,38.4477153 18.4477153,38 19,38 L52,38 C52.5522847,38 53,38.4477153 53,39 C53,39.5522847 52.5522847,40 52,40 Z" id="Shape" fill="#7F8C8D"/><path d="M15,44 L23,44 L23,48 C23,48.5522847 22.5522847,49 22,49 L16,49 C15.4477153,49 15,48.5522847 15,48 L15,44 Z" id="Shape" fill="#67B9CC"/><path d="M24,45 L14,45 C13.4477153,45 13,44.5522847 13,44 C13,43.4477153 13.4477153,43 14,43 L24,43 C24.5522847,43 25,43.4477153 25,44 C25,44.5522847 24.5522847,45 24,45 Z" id="Shape" fill="#2C3E50"/><rect id="Rectangle-path" fill="#67B9CC" x="2" y="44" width="7" height="10"/><path d="M10,45 L2,45 C1.44771525,45 1,44.5522847 1,44 C1,43.4477153 1.44771525,43 2,43 L10,43 C10.5522847,43 11,43.4477153 11,44 C11,44.5522847 10.5522847,45 10,45 Z" id="Shape" fill="#2C3E50"/><path d="M29,44 L37,44 L37,48 C37,48.5522847 36.5522847,49 36,49 L30,49 C29.4477153,49 29,48.5522847 29,48 L29,44 Z" id="Shape" fill="#67B9CC"/><path d="M38,45 L28,45 C27.4477153,45 27,44.5522847 27,44 C27,43.4477153 27.4477153,43 28,43 L38,43 C38.5522847,43 39,43.4477153 39,44 C39,44.5522847 38.5522847,45 38,45 Z" id="Shape" fill="#2C3E50"/><path d="M43,44 L51,44 L51,48 C51,48.5522847 50.5522847,49 50,49 L44,49 C43.4477153,49 43,48.5522847 43,48 L43,44 Z" id="Shape" fill="#67B9CC"/><path d="M52,45 L42,45 C41.4477153,45 41,44.5522847 41,44 C41,43.4477153 41.4477153,43 42,43 L52,43 C52.5522847,43 53,43.4477153 53,44 C53,44.5522847 52.5522847,45 52,45 Z" id="Shape" fill="#2C3E50"/><path d="M58,54 L0,54 L0,57 C0,57.5522847 0.44771525,58 1,58 L57,58 C57.5522847,58 58,57.5522847 58,57 L58,54 Z" id="Shape" fill="#7F5B53"/></g></g></svg>
