<?xml version="1.0" encoding="UTF-8"?>
<svg xmlns="http://www.w3.org/2000/svg" xmlns:xlink="http://www.w3.org/1999/xlink" width="512" height="512" viewBox="0 0 59 58" version="1.1"><!-- Generator: Sketch 50.2 (55047) - http://www.bohemiancoding.com/sketch --><title>003 - Factory </title><desc>Created with Sketch.</desc><defs/><g id="Page-1" stroke="none" stroke-width="1" fill="none" fill-rule="evenodd"><g id="003---Factory-" fill-rule="nonzero"><rect id="Rectangle-path" fill="#F0C419" x="1" y="47" width="38" height="9"/><rect id="Rectangle-path" fill="#F3D55B" x="1" y="39" width="38" height="9"/><path d="M57,55 C56.4477153,55 56,54.5522847 56,54 L56,6 C56,5.44771525 56.4477153,5 57,5 C57.5522847,5 58,5.44771525 58,6 L58,54 C58,54.5522847 57.5522847,55 57,55 Z" id="Shape" fill="#5E5F62"/><path d="M58,7 L53,7 C52.4477153,7 52,6.55228475 52,6 C52,5.44771525 52.4477153,5 53,5 L58,5 C58.5522847,5 59,5.44771525 59,6 C59,6.55228475 58.5522847,7 58,7 Z" id="Shape" fill="#7F8C8D"/><path d="M58,13 L53,13 C52.4477153,13 52,12.5522847 52,12 C52,11.4477153 52.4477153,11 53,11 L58,11 C58.5522847,11 59,11.4477153 59,12 C59,12.5522847 58.5522847,13 58,13 Z" id="Shape" fill="#7F8C8D"/><path d="M58,19 L53,19 C52.4477153,19 52,18.5522847 52,18 C52,17.4477153 52.4477153,17 53,17 L58,17 C58.5522847,17 59,17.4477153 59,18 C59,18.5522847 58.5522847,19 58,19 Z" id="Shape" fill="#7F8C8D"/><path d="M58,25 L53,25 C52.4477153,25 52,24.5522847 52,24 C52,23.4477153 52.4477153,23 53,23 L58,23 C58.5522847,23 59,23.4477153 59,24 C59,24.5522847 58.5522847,25 58,25 Z" id="Shape" fill="#7F8C8D"/><path d="M58,31 L53,31 C52.4477153,31 52,30.5522847 52,30 C52,29.4477153 52.4477153,29 53,29 L58,29 C58.5522847,29 59,29.4477153 59,30 C59,30.5522847 58.5522847,31 58,31 Z" id="Shape" fill="#7F8C8D"/><path d="M58,37 L53,37 C52.4477153,37 52,36.5522847 52,36 C52,35.4477153 52.4477153,35 53,35 L58,35 C58.5522847,35 59,35.4477153 59,36 C59,36.5522847 58.5522847,37 58,37 Z" id="Shape" fill="#7F8C8D"/><path d="M58,43 L53,43 C52.4477153,43 52,42.5522847 52,42 C52,41.4477153 52.4477153,41 53,41 L58,41 C58.5522847,41 59,41.4477153 59,42 C59,42.5522847 58.5522847,43 58,43 Z" id="Shape" fill="#7F8C8D"/><path d="M58,49 L53,49 C52.4477153,49 52,48.5522847 52,48 C52,47.4477153 52.4477153,47 53,47 L58,47 C58.5522847,47 59,47.4477153 59,48 C59,48.5522847 58.5522847,49 58,49 Z" id="Shape" fill="#7F8C8D"/><polygon id="Shape" fill="#556080" points="34 18 24 18 24 14 44 14 44 18 39.556 18"/><path d="M5,22 C4.44771525,22 4,21.5522847 4,21 C4.00330612,18.2399468 6.23994685,16.0033061 9,16 L15,16 C15.5522847,16 16,16.4477153 16,17 C16,17.5522847 15.5522847,18 15,18 L9,18 C7.34314575,18 6,19.3431458 6,21 C6,21.5522847 5.55228475,22 5,22 Z" id="Shape" fill="#5E5F62"/><path d="M5,35 C4.44771525,35 4,34.5522847 4,34 L4,12 C4.00495988,7.58377808 7.58377808,4.00495988 12,4 L13,4 C17.4162219,4.00495988 20.9950401,7.58377808 21,12 C21,12.5522847 20.5522847,13 20,13 C19.4477153,13 19,12.5522847 19,12 C18.9966926,8.68766243 16.3123376,6.00330738 13,6 L12,6 C8.68766243,6.00330738 6.00330738,8.68766243 6,12 L6,34 C6,34.2652165 5.89464316,34.5195704 5.70710678,34.7071068 C5.5195704,34.8946432 5.26521649,35 5,35 Z" id="Shape" fill="#A5A5A4"/><path d="M16.049,12 L23.949,12 C24.2275585,11.9994689 24.4948898,12.1097537 24.6920482,12.306537 C24.8892067,12.5033202 25.0000005,12.770441 25,13.049 L25,23 L15,23 L15,13.049 C15,12.4696533 15.4696533,12 16.049,12 Z" id="Shape" fill="#E64C3C"/><path d="M19,23 C18.4477153,23 18,22.5522847 18,22 L18,19 C18,18.4477153 18.4477153,18 19,18 C19.5522847,18 20,18.4477153 20,19 L20,22 C20,22.5522847 19.5522847,23 19,23 Z" id="Shape" fill="#FB7B76"/><path d="M19,17 C18.8693227,16.99842 18.7402223,16.971241 18.62,16.92 C18.4988607,16.8692709 18.3872607,16.7982527 18.29,16.71 C18.107435,16.518257 18.0038804,16.2647269 18,16 C18.00158,15.8693227 18.028759,15.7402223 18.08,15.62 C18.1709238,15.3687697 18.3687697,15.1709238 18.62,15.08 C18.9925692,14.9250705 19.4216601,15.0077394 19.71,15.29 C19.8003968,15.3856071 19.871677,15.4976187 19.92,15.62 C20.0267285,15.8620922 20.0267285,16.1379078 19.92,16.38 C19.8692709,16.5011393 19.7982527,16.6127393 19.71,16.71 C19.518257,16.892565 19.2647269,16.9961196 19,17 Z" id="Shape" fill="#FB7B76"/><path d="M27,28.84 L27,24 C26.9967052,22.8967981 26.1032019,22.0032948 25,22 L15,22 C13.8967981,22.0032948 13.0032948,22.8967981 13,24 L13,28.84" id="Shape" fill="#C03A2B"/><path d="M39,37.59 L39.0000338,40 L0.999966192,40 L1,37.59 C0.997630633,37.186295 1.11985435,36.791687 1.35,36.46 C2.69,34.52 8.08,28 20,28 C31.92,28 37.31,34.52 38.65,36.46 C38.8801456,36.791687 39.0023694,37.186295 39,37.59 Z" id="Shape" fill="#E64C3C"/><path d="M12,43 C12,43.5522847 11.5522847,44 11,44 L1,44 L1,42 L11,42 C11.5522847,42 12,42.4477153 12,43 Z" id="Shape" fill="#F9EAB0"/><path d="M25,44 L15,44 C14.4477153,44 14,43.5522847 14,43 C14,42.4477153 14.4477153,42 15,42 L25,42 C25.5522847,42 26,42.4477153 26,43 C26,43.5522847 25.5522847,44 25,44 Z" id="Shape" fill="#F9EAB0"/><path d="M53,1.019 L53.0000252,55 L42.9999748,55 L43,1.019 C42.9961083,0.46201586 43.4430413,0.00659112023 44,0 L52,0 C52.5569587,0.00659112023 53.0038917,0.46201586 53,1.019 Z" id="Shape" fill="#285680"/><path d="M45,6 C45,6.55228475 44.5522847,7 44,7 L43,7 L43,5 L44,5 C44.5522847,5 45,5.44771525 45,6 Z" id="Shape" fill="#4482C3"/><path d="M49,7 L48,7 C47.4477153,7 47,6.55228475 47,6 C47,5.44771525 47.4477153,5 48,5 L49,5 C49.5522847,5 50,5.44771525 50,6 C50,6.55228475 49.5522847,7 49,7 Z" id="Shape" fill="#4482C3"/><path d="M45,12 C45,12.5522847 44.5522847,13 44,13 L43,13 L43,11 L44,11 C44.5522847,11 45,11.4477153 45,12 Z" id="Shape" fill="#4482C3"/><path d="M49,13 L48,13 C47.4477153,13 47,12.5522847 47,12 C47,11.4477153 47.4477153,11 48,11 L49,11 C49.5522847,11 50,11.4477153 50,12 C50,12.5522847 49.5522847,13 49,13 Z" id="Shape" fill="#4482C3"/><path d="M45,18 C45,18.5522847 44.5522847,19 44,19 L43,19 L43,17 L44,17 C44.5522847,17 45,17.4477153 45,18 Z" id="Shape" fill="#4482C3"/><path d="M49,19 L48,19 C47.4477153,19 47,18.5522847 47,18 C47,17.4477153 47.4477153,17 48,17 L49,17 C49.5522847,17 50,17.4477153 50,18 C50,18.5522847 49.5522847,19 49,19 Z" id="Shape" fill="#4482C3"/><path d="M45,24 C45,24.5522847 44.5522847,25 44,25 L43,25 L43,23 L44,23 C44.5522847,23 45,23.4477153 45,24 Z" id="Shape" fill="#4482C3"/><path d="M49,25 L48,25 C47.4477153,25 47,24.5522847 47,24 C47,23.4477153 47.4477153,23 48,23 L49,23 C49.5522847,23 50,23.4477153 50,24 C50,24.5522847 49.5522847,25 49,25 Z" id="Shape" fill="#4482C3"/><path d="M45,30 C45,30.5522847 44.5522847,31 44,31 L43,31 L43,29 L44,29 C44.5522847,29 45,29.4477153 45,30 Z" id="Shape" fill="#4482C3"/><path d="M49,31 L48,31 C47.4477153,31 47,30.5522847 47,30 C47,29.4477153 47.4477153,29 48,29 L49,29 C49.5522847,29 50,29.4477153 50,30 C50,30.5522847 49.5522847,31 49,31 Z" id="Shape" fill="#4482C3"/><path d="M45,36 C45,36.5522847 44.5522847,37 44,37 L43,37 L43,35 L44,35 C44.5522847,35 45,35.4477153 45,36 Z" id="Shape" fill="#4482C3"/><path d="M49,37 L48,37 C47.4477153,37 47,36.5522847 47,36 C47,35.4477153 47.4477153,35 48,35 L49,35 C49.5522847,35 50,35.4477153 50,36 C50,36.5522847 49.5522847,37 49,37 Z" id="Shape" fill="#4482C3"/><path d="M45,42 C45,42.5522847 44.5522847,43 44,43 L43,43 L43,41 L44,41 C44.5522847,41 45,41.4477153 45,42 Z" id="Shape" fill="#4482C3"/><path d="M49,43 L48,43 C47.4477153,43 47,42.5522847 47,42 C47,41.4477153 47.4477153,41 48,41 L49,41 C49.5522847,41 50,41.4477153 50,42 C50,42.5522847 49.5522847,43 49,43 Z" id="Shape" fill="#4482C3"/><path d="M45,48 C45,48.5522847 44.5522847,49 44,49 L43,49 L43,47 L44,47 C44.5522847,47 45,47.4477153 45,48 Z" id="Shape" fill="#4482C3"/><path d="M49,49 L48,49 C47.4477153,49 47,48.5522847 47,48 C47,47.4477153 47.4477153,47 48,47 L49,47 C49.5522847,47 50,47.4477153 50,48 C50,48.5522847 49.5522847,49 49,49 Z" id="Shape" fill="#4482C3"/><path d="M33,37 C32.7836298,37 32.5730962,36.9298221 32.4,36.8 C30.0992455,35.0801996 27.5109355,33.7833357 24.756,32.97 C24.4094524,32.8830058 24.13564,32.6177389 24.0377054,32.2741228 C23.9397707,31.9305067 24.0325924,31.5607448 24.2812054,31.3041228 C24.5298183,31.0475009 24.8964524,30.9430058 25.243,31.03 C28.2591061,31.9001458 31.0911447,33.3132846 33.6,35.2 C33.9443443,35.4582582 34.0847973,35.9078856 33.9486833,36.3162278 C33.8125693,36.7245699 33.4304304,37 33,37 Z" id="Shape" fill="#FB7B76"/><path d="M35,40 C34.9329612,39.9978125 34.8661445,39.9911308 34.8,39.98 C34.7373375,39.9691127 34.6766624,39.9488877 34.62,39.92 C34.5562619,39.8981446 34.4957271,39.8678773 34.44,39.83 L34.29,39.71 C33.9032597,39.3156639 33.9032597,38.6843361 34.29,38.29 L34.44,38.17 C34.4957271,38.1321227 34.5562619,38.1018554 34.62,38.08 C34.6766624,38.0511123 34.7373375,38.0308873 34.8,38.02 C35.1290588,37.959264 35.4673146,38.0596256 35.71,38.29 C35.8003968,38.3856071 35.871677,38.4976187 35.92,38.62 C35.971241,38.7402223 35.99842,38.8693227 36,39 C35.9980257,39.2651121 35.8941958,39.5193164 35.71,39.71 C35.518257,39.892565 35.2647269,39.9961196 35,40 Z" id="Shape" fill="#FB7B76"/><path d="M58,54 L0,54 L0,57 C0,57.5522847 0.44771525,58 1,58 L57,58 C57.5522847,58 58,57.5522847 58,57 L58,54 Z" id="Shape" fill="#7F5B53"/></g></g></svg>
