<?xml version="1.0" encoding="UTF-8"?>
<svg xmlns="http://www.w3.org/2000/svg" xmlns:xlink="http://www.w3.org/1999/xlink" width="512" height="512" viewBox="0 0 58 58" version="1.1"><!-- Generator: Sketch 50.2 (55047) - http://www.bohemiancoding.com/sketch --><title>002 - Silos </title><desc>Created with Sketch.</desc><defs/><g id="Page-1" stroke="none" stroke-width="1" fill="none" fill-rule="evenodd"><g id="002---Silos-" fill-rule="nonzero"><rect id="Rectangle-path" fill="#F3D55B" x="2" y="37" width="28" height="18"/><path d="M16,46 C18.209139,46 20,47.790861 20,50 L20,55 L12,55 L12,50 C12,47.790861 13.790861,46 16,46 Z" id="Shape" fill="#59474E"/><path d="M18,20 L18,5 C18,4.44771525 18.4477153,4 19,4 L43,4 C43.5522847,4 44,4.44771525 44,5 L44,7 L48,7 L48,2 C48,0.8954305 47.1045695,0 46,0 L16,0 C14.8954305,-1.11022302e-16 14,0.8954305 14,2 L14,20" id="Shape" fill="#A5A5A4"/><path d="M13,42 C13,42.5522847 12.5522847,43 12,43 L2,43 L2,41 L12,41 C12.5522847,41 13,41.4477153 13,42 Z" id="Shape" fill="#F9EAB0"/><path d="M24,43 L16,43 C15.4477153,43 15,42.5522847 15,42 C15,41.4477153 15.4477153,41 16,41 L24,41 C24.5522847,41 25,41.4477153 25,42 C25,42.5522847 24.5522847,43 24,43 Z" id="Shape" fill="#F9EAB0"/><path d="M20,22.58 L20,20 C19.9967052,18.8967981 19.1032019,18.0032948 18,18 L14,18 C12.8967981,18.0032948 12.0032948,18.8967981 12,20 L12,22.58" id="Shape" fill="#556080"/><path d="M44.118,7 L47.882,7 C48.4994544,7 49,7.50054565 49,8.118 L49,12 L43,12 L43,8.118 C43,7.50054565 43.5005456,7 44.118,7 Z" id="Shape" fill="#3B97D3"/><polyline id="Shape" fill="#2C3E50" points="57 46 57 55 35 55 35 46"/><path d="M57,36 L57,43 C57.5522847,43 58,43.4477153 58,44 L58,46 C58,46.5522847 57.5522847,47 57,47 L35,47 C34.4477153,47 34,46.5522847 34,46 L34,44 C34,43.4477153 34.4477153,43 35,43 L35,36 L57,36 Z" id="Shape" fill="#285680"/><path d="M43.191,11 L48.809,11 C50.0190559,11 51,11.9809441 51,13.191 L51,17 L41,17 L41,13.191 C41,11.9809441 41.9809441,11 43.191,11 Z" id="Shape" fill="#2980BA"/><path d="M57,27 L57,34 C57.5522847,34 58,34.4477153 58,35 L58,37 C58,37.5522847 57.5522847,38 57,38 L35,38 C34.4477153,38 34,37.5522847 34,37 L34,35 C34,34.4477153 34.4477153,34 35,34 L35,27 L57,27 Z" id="Shape" fill="#2980BA"/><path d="M41,35 L40,35 C39.4477153,35 39,34.5522847 39,34 C39,33.4477153 39.4477153,33 40,33 L41,33 C41.5522847,33 42,33.4477153 42,34 C42,34.5522847 41.5522847,35 41,35 Z" id="Shape" fill="#285680"/><path d="M47,35 L45,35 C44.4477153,35 44,34.5522847 44,34 C44,33.4477153 44.4477153,33 45,33 L47,33 C47.5522847,33 48,33.4477153 48,34 C48,34.5522847 47.5522847,35 47,35 Z" id="Shape" fill="#285680"/><path d="M52,35 L51,35 C50.4477153,35 50,34.5522847 50,34 C50,33.4477153 50.4477153,33 51,33 L52,33 C52.5522847,33 53,33.4477153 53,34 C53,34.5522847 52.5522847,35 52,35 Z" id="Shape" fill="#285680"/><path d="M41,44 L40,44 C39.4477153,44 39,43.5522847 39,43 C39,42.4477153 39.4477153,42 40,42 L41,42 C41.5522847,42 42,42.4477153 42,43 C42,43.5522847 41.5522847,44 41,44 Z" id="Shape" fill="#2980BA"/><path d="M47,44 L45,44 C44.4477153,44 44,43.5522847 44,43 C44,42.4477153 44.4477153,42 45,42 L47,42 C47.5522847,42 48,42.4477153 48,43 C48,43.5522847 47.5522847,44 47,44 Z" id="Shape" fill="#2980BA"/><path d="M52,44 L51,44 C50.4477153,44 50,43.5522847 50,43 C50,42.4477153 50.4477153,42 51,42 L52,42 C52.5522847,42 53,42.4477153 53,43 C53,43.5522847 52.5522847,44 52,44 Z" id="Shape" fill="#2980BA"/><path d="M51,16 L55.632,17.544 C56.4490855,17.8161439 57.0002074,18.5807852 57,19.442 L57,25 C57.5522847,25 58,25.4477153 58,26 L58,28 C58,28.5522847 57.5522847,29 57,29 L35,29 C34.4477153,29 34,28.5522847 34,28 L34,26 C34,25.4477153 34.4477153,25 35,25 L35,19.442 C34.9989307,18.5800492 35.5502154,17.814376 36.368,17.542 L41,16 L51,16 Z" id="Shape" fill="#285680"/><path d="M41,26 L40,26 C39.4477153,26 39,25.5522847 39,25 C39,24.4477153 39.4477153,24 40,24 L41,24 C41.5522847,24 42,24.4477153 42,25 C42,25.5522847 41.5522847,26 41,26 Z" id="Shape" fill="#2980BA"/><path d="M47,26 L45,26 C44.4477153,26 44,25.5522847 44,25 C44,24.4477153 44.4477153,24 45,24 L47,24 C47.5522847,24 48,24.4477153 48,25 C48,25.5522847 47.5522847,26 47,26 Z" id="Shape" fill="#2980BA"/><path d="M52,26 L51,26 C50.4477153,26 50,25.5522847 50,25 C50,24.4477153 50.4477153,24 51,24 L52,24 C52.5522847,24 53,24.4477153 53,25 C53,25.5522847 52.5522847,26 52,26 Z" id="Shape" fill="#2980BA"/><path d="M58,54 L0,54 L0,57 C0,57.5522847 0.44771525,58 1,58 L57,58 C57.5522847,58 58,57.5522847 58,57 L58,54 Z" id="Shape" fill="#7F5B53"/><path d="M16,22 C23.7319865,22 30,28.2680135 30,36 L30,38 L2,38 L2,36 C2,28.2680135 8.2680135,22 16,22 Z" id="Shape" fill="#E64C3C"/><path d="M24,31 C23.5693926,31.0001037 23.1870719,30.7245428 23.051,30.316 C22.24,27.883 18.79,26.979 18.751,26.97 C18.4044524,26.8828272 18.1307353,26.6173952 18.0329554,26.2736898 C17.9351754,25.9299844 18.0281877,25.5602224 18.2769554,25.3036898 C18.525723,25.0471572 18.8924524,24.9428272 19.239,25.03 C19.424,25.076 23.785,26.203 24.945,29.684 C25.0463561,29.9883043 24.9955956,30.3227591 24.8085144,30.5832869 C24.6214332,30.8438148 24.3207377,30.998795 24,31 Z" id="Shape" fill="#FB7B76"/><path d="M25,34 C24.8693227,33.99842 24.7402223,33.971241 24.62,33.92 C24.3687697,33.8290762 24.1709238,33.6312303 24.08,33.38 C24.028759,33.2597777 24.00158,33.1306773 24,33 C24.0038804,32.7352731 24.107435,32.481743 24.29,32.29 C24.3856071,32.1996032 24.4976187,32.128323 24.62,32.08 C24.9928693,31.9280583 25.4202714,32.0104019 25.71,32.29 C25.7982527,32.3872607 25.8692709,32.4988607 25.92,32.62 C26.0267285,32.8620922 26.0267285,33.1379078 25.92,33.38 C25.871677,33.5023813 25.8003968,33.6143929 25.71,33.71 C25.518257,33.892565 25.2647269,33.9961196 25,34 Z" id="Shape" fill="#FB7B76"/></g></g></svg>
