<?xml version="1.0" encoding="UTF-8"?>
<svg xmlns="http://www.w3.org/2000/svg" xmlns:xlink="http://www.w3.org/1999/xlink" width="512" height="512" viewBox="0 0 60 59" version="1.1"><!-- Generator: Sketch 50.2 (55047) - http://www.bohemiancoding.com/sketch --><title>056 - Coal </title><desc>Created with Sketch.</desc><defs/><g id="Page-1" stroke="none" stroke-width="1" fill="none" fill-rule="evenodd"><g id="056---Coal-" fill-rule="nonzero"><polygon id="Shape" fill="#F0C419" points="57 22 53 46 7 46 3 22"/><path d="M4,18 L3.339,14.43 C3.12672773,13.395312 3.65031676,12.349787 4.606,11.9 L7.172,10.79 C7.71287447,10.5491614 8.13165259,10.0975025 8.331,9.54 L9.4,6.641 C9.70969184,5.71820259 10.6217479,5.13696994 11.589,5.246 L16.72,5.939 C17.5197016,6.0358052 18.3007309,5.64941364 18.709,4.955 L21.08,1.111 C21.5757917,0.256382302 22.6213483,-0.108139244 23.541,0.253 L29.06,2.488 C29.6526342,2.72835379 30.3255339,2.66218532 30.86,2.311 L33.93,0.32 C34.5794617,-0.10690419 35.4205383,-0.10690419 36.07,0.32 L39.115,2.3 C39.6628998,2.66112879 40.3560635,2.72130578 40.958,2.46 L43.358,1.423 C44.3223611,1.01692021 45.4367248,1.42281717 45.914,2.354 L47.394,5.02 C47.7450206,5.68197017 48.4287992,6.10013301 49.178,6.111 L50.463,6.111 C51.112472,6.14484481 51.7139158,6.46354839 52.1066217,6.9819511 C52.4993277,7.50035381 52.643275,8.16562503 52.5,8.8 L52.5,8.826 C52.3566829,9.46070149 52.5008819,10.126299 52.8940308,10.6447773 C53.2871796,11.1632556 53.8891706,11.4817213 54.539,11.515 L54.547,11.515 C55.184806,11.54589 55.7777223,11.8523738 56.1717596,12.354853 C56.5657969,12.8573321 56.7220728,13.5062234 56.6,14.133 L56,18 L4,18 Z" id="Shape" fill="#35495E"/><path d="M3,59 C2.44771525,59 2,58.5522847 2,58 L2,55 C2,54.4477153 2.44771525,54 3,54 C3.55228475,54 4,54.4477153 4,55 L4,58 C4,58.5522847 3.55228475,59 3,59 Z" id="Shape" fill="#A5A5A4"/><path d="M12,59 C11.4477153,59 11,58.5522847 11,58 L11,55 C11,54.4477153 11.4477153,54 12,54 C12.5522847,54 13,54.4477153 13,55 L13,58 C13,58.5522847 12.5522847,59 12,59 Z" id="Shape" fill="#A5A5A4"/><path d="M21,59 C20.4477153,59 20,58.5522847 20,58 L20,55 C20,54.4477153 20.4477153,54 21,54 C21.5522847,54 22,54.4477153 22,55 L22,58 C22,58.5522847 21.5522847,59 21,59 Z" id="Shape" fill="#A5A5A4"/><path d="M30,59 C29.4477153,59 29,58.5522847 29,58 L29,55 C29,54.4477153 29.4477153,54 30,54 C30.5522847,54 31,54.4477153 31,55 L31,58 C31,58.5522847 30.5522847,59 30,59 Z" id="Shape" fill="#A5A5A4"/><path d="M39,59 C38.4477153,59 38,58.5522847 38,58 L38,55 C38,54.4477153 38.4477153,54 39,54 C39.5522847,54 40,54.4477153 40,55 L40,58 C40,58.5522847 39.5522847,59 39,59 Z" id="Shape" fill="#A5A5A4"/><path d="M48,59 C47.4477153,59 47,58.5522847 47,58 L47,55 C47,54.4477153 47.4477153,54 48,54 C48.5522847,54 49,54.4477153 49,55 L49,58 C49,58.5522847 48.5522847,59 48,59 Z" id="Shape" fill="#A5A5A4"/><path d="M57,59 C56.4477153,59 56,58.5522847 56,58 L56,55 C56,54.4477153 56.4477153,54 57,54 C57.5522847,54 58,54.4477153 58,55 L58,58 C58,58.5522847 57.5522847,59 57,59 Z" id="Shape" fill="#A5A5A4"/><path d="M59,56 L1,56 C0.44771525,56 6.76353751e-17,55.5522847 0,55 C-6.76353751e-17,54.4477153 0.44771525,54 1,54 L59,54 C59.5522847,54 60,54.4477153 60,55 C60,55.5522847 59.5522847,56 59,56 Z" id="Shape" fill="#5E5F62"/><path d="M12,23 L2,23 C1.44771525,23 1,22.5522847 1,22 L1,18 C1,17.4477153 1.44771525,17 2,17 L58,17 C58.5522847,17 59,17.4477153 59,18 L59,22 C59,22.5522847 58.5522847,23 58,23 L16,23" id="Shape" fill="#F29C1F"/><path d="M9.1,49 L5,49 C4.44771525,49 4,48.5522847 4,48 L4,46 C4,45.4477153 4.44771525,45 5,45 L55,45 C55.5522847,45 56,45.4477153 56,46 L56,48 C56,48.5522847 55.5522847,49 55,49 L9.1,49 Z" id="Shape" fill="#F29C1F"/><circle id="Oval" fill="#59474E" cx="14" cy="50" r="5"/><circle id="Oval" fill="#59474E" cx="46" cy="50" r="5"/></g></g></svg>
