<?xml version="1.0" encoding="utf-8"?>
<!-- Generator: Adobe Illustrator 18.0.0, SVG Export Plug-In . SVG Version: 6.00 Build 0)  -->
<!DOCTYPE svg PUBLIC "-//W3C//DTD SVG 1.1//EN" "http://www.w3.org/Graphics/SVG/1.1/DTD/svg11.dtd">
<svg version="1.1" id="Layer_1" xmlns="http://www.w3.org/2000/svg" xmlns:xlink="http://www.w3.org/1999/xlink" x="0px" y="0px"
	 viewBox="0 0 42.1 40.7" enable-background="new 0 0 42.1 40.7" xml:space="preserve">
<g>
	<path fill="#AAD3C7" d="M2.9,21.5c0,6.2,3.2,11.7,8,14.9c0.7-0.7,1.5-1.5,2.2-2.2c-1.1-0.6-2.2-1.4-3.1-2.3
		c-2.7-2.7-4.3-6.4-4.3-10.4c0-2.5,0.6-4.9,1.7-7l-1.7,0.3c-0.2,0-0.3,0-0.5-0.1c-0.1-0.1-0.2-0.3-0.2-0.5l0.2-1.8
		C3.9,15,2.9,18.1,2.9,21.5z"/>
	<path fill="#82BFAB" d="M30.6,31.4c2.6-2.6,4.2-6.1,4.2-10.1c0-3.9-1.6-7.5-4.2-10.1C28,8.7,24.4,7.1,20.5,7.1
		c-2.1,0-4.1,0.5-5.9,1.3l3.3,3.5c0.1,0.1,0.2,0.3,0.1,0.4c0.2-0.3,0.5-0.4,0.8-0.4c0.5,0,0.9,0.4,0.9,0.9V21l6.3,6.5
		c0.4,0.4,0.4,1,0,1.3c-0.4,0.4-1,0.4-1.3,0L18.1,22c-0.2-0.2-0.3-0.4-0.3-0.7v-8.5c0-0.1,0-0.2,0-0.3c-0.1,0.1-0.2,0.2-0.3,0.2
		l-9.1,1.5l-0.5,0.1l-0.4,0.1c-1.1,2.1-1.7,4.4-1.7,7c0,4.1,1.6,7.8,4.3,10.4c0.9,0.9,2,1.7,3.1,2.3c0,0,0.1-0.1,0.1-0.1
		c0.2-0.2,0.4-0.2,0.6-0.1c0.2,0.1,0.5,0.2,0.7,0.4l0,0l0.1,0c0.2,0.1,0.5,0.2,0.7,0.3l0,0l0.1,0c0.5,0.2,1,0.4,1.6,0.5l0,0l0,0
		c0.2,0.1,0.5,0.1,0.7,0.2l0,0c0.1,0,0.1,0,0.2,0c0.2,0,0.4,0.1,0.6,0.1l0,0c0.1,0,0.2,0,0.3,0c0.2,0,0.4,0,0.6,0.1
		c0.1,0,0.2,0,0.2,0l0,0c0.3,0,0.6,0,0.8,0C24.4,35.6,28,34,30.6,31.4z"/>
	<path fill="#616E7D" d="M13.9,33.9c-0.2-0.1-0.5-0.1-0.6,0.1c0,0-0.1,0.1-0.1,0.1c-0.7,0.7-1.5,1.5-2.2,2.2c0,0,0,0,0,0
		c-0.1,0.1-0.2,0.3-0.2,0.4c0,0.2,0.1,0.3,0.3,0.4c2.8,1.7,6,2.6,9.5,2.6c5.1,0,9.7-2.1,13.1-5.4c3.3-3.3,5.4-8,5.4-13.1v0v0v0
		c0-5.1-2.1-9.7-5.4-13.1c-3.3-3.3-8-5.4-13.1-5.4c-3.3,0-6.3,0.9-9,2.3L7.9,1.4C7.7,1.2,7.5,1.2,7.3,1.2C7.1,1.3,7,1.4,7,1.6
		l-1.4,9.8l-0.1,0.8l-0.2,1.8c0,0.2,0,0.3,0.2,0.5c0.1,0.1,0.3,0.2,0.5,0.1l1.7-0.3l0.4-0.1l0.5-0.1l9.1-1.5c0.1,0,0.2-0.1,0.3-0.2
		c0-0.1,0.1-0.2,0.1-0.2c0-0.2,0-0.3-0.1-0.4l-3.3-3.5c1.8-0.8,3.8-1.3,5.9-1.3c3.9,0,7.5,1.6,10.1,4.2c2.6,2.6,4.2,6.1,4.2,10.1
		c0,3.9-1.6,7.5-4.2,10.1c-2.6,2.6-6.1,4.2-10.1,4.2c-0.3,0-0.5,0-0.8,0l0,0c-0.1,0-0.2,0-0.2,0c-0.2,0-0.4,0-0.6-0.1
		c-0.1,0-0.2,0-0.3,0l0,0c-0.2,0-0.4-0.1-0.6-0.1c-0.1,0-0.2,0-0.2,0l0,0c-0.2,0-0.5-0.1-0.7-0.2l0,0l0,0c-0.5-0.1-1.1-0.3-1.6-0.5
		l-0.1,0l0,0c-0.2-0.1-0.5-0.2-0.7-0.3l-0.1,0l0,0C14.4,34.2,14.1,34.1,13.9,33.9z"/>
	<path fill="#AAD3C7" d="M18.8,11.9c-0.3,0-0.6,0.2-0.8,0.4c0,0.1-0.1,0.2-0.1,0.2c0,0.1,0,0.2,0,0.3v8.5c0,0.2,0.1,0.5,0.3,0.7
		l6.6,6.8c0.4,0.4,1,0.4,1.3,0c0.4-0.4,0.4-1,0-1.3L19.8,21v-8.1C19.8,12.3,19.3,11.9,18.8,11.9z"/>
</g>
</svg>
